/* XPM */
static char *banana1714407347[] = {
/* columns rows colors chars-per-pixel */
"64 64 230 2 ",
"   c #BE7B02",
".  c #BD7C0D",
"X  c #BB7E15",
"o  c #BE7D1B",
"O  c #BA7A1D",
"+  c #AE7A2B",
"@  c #B47E27",
"#  c #BC7E23",
"$  c #C57605",
"%  c #CB7604",
"&  c #C57C04",
"*  c #CB7C03",
"=  c #CB770D",
"-  c #C47C0B",
";  c #CB7B0B",
":  c #D37603",
">  c #D17A03",
",  c #C37C13",
"<  c #CA7D16",
"1  c #C37C1C",
"2  c #C17D24",
"3  c #7C907D",
"4  c #BD8106",
"5  c #BC8B09",
"6  c #B88117",
"7  c #B7822A",
"8  c #A88535",
"9  c #B48332",
"0  c #B88635",
"q  c #C58203",
"w  c #CC8303",
"e  c #CC8B05",
"r  c #C5840B",
"t  c #CB840B",
"y  c #D38404",
"u  c #D38B04",
"i  c #DA8A05",
"p  c #D48D0A",
"a  c #CB9206",
"s  c #CD9605",
"d  c #D49305",
"f  c #DA9406",
"g  c #D69A03",
"h  c #DD9907",
"j  c #D49509",
"k  c #D49A0C",
"l  c #DC9C0A",
"z  c #C78514",
"x  c #C18D11",
"c  c #D19017",
"v  c #D99918",
"b  c #E19807",
"n  c #E39D0B",
"m  c #E89E13",
"M  c #D9A508",
"N  c #DCA40B",
"B  c #DCA818",
"V  c #E3A706",
"C  c #EDAF04",
"Z  c #E4A40A",
"A  c #EAA50B",
"S  c #E3AB0D",
"D  c #EBAC0C",
"F  c #F0AF07",
"G  c #F2AD0A",
"H  c #E7B404",
"J  c #EDB302",
"K  c #EDBA03",
"L  c #E5B40A",
"P  c #ECB30B",
"I  c #EEBA0D",
"U  c #F1B204",
"Y  c #F2BC03",
"T  c #F2B20B",
"R  c #F3BD0D",
"E  c #E6A812",
"W  c #EBAC12",
"Q  c #F0AC12",
"!  c #E6B013",
"~  c #EBB413",
"^  c #ECBB11",
"/  c #F3BD13",
"(  c #F3BB18",
")  c #C88C2A",
"_  c #D7A625",
"`  c #D8B02E",
"'  c #E9B42B",
"]  c #E2BA34",
"[  c #F3C305",
"{  c #F6CC06",
"}  c #FBCC06",
"|  c #F4C30D",
" . c #F8C20C",
".. c #F5CA0B",
"X. c #FBCD0C",
"o. c #F6D302",
"O. c #FDD504",
"+. c #F6DA04",
"@. c #FCD903",
"#. c #F5D50A",
"$. c #FCD40A",
"%. c #F6D80D",
"&. c #FBDA0C",
"*. c #EECD16",
"=. c #F3C413",
"-. c #FAC713",
";. c #F6CB12",
":. c #FBCC13",
">. c #F5CD1A",
",. c #FCCD18",
"<. c #F7D417",
"1. c #FCD213",
"2. c #F3DB13",
"3. c #FADC14",
"4. c #F4DC1C",
"5. c #F9DE1C",
"6. c #F9E31C",
"7. c #DFC33A",
"8. c #F3DE25",
"9. c #FADC24",
"0. c #F0D02F",
"q. c #E3C73C",
"w. c #F7D93A",
"e. c #F7E326",
"r. c #F4E22B",
"t. c #FAE22A",
"y. c #FAE532",
"u. c #FAEA34",
"i. c #F8E83A",
"p. c #FCF13A",
"a. c #9F8649",
"s. c #9A8957",
"d. c #998C5D",
"f. c #9A915C",
"g. c #AC8644",
"h. c #A78846",
"j. c #A98B4B",
"k. c #B0894F",
"l. c #A38E53",
"z. c #A38D5E",
"x. c #A49156",
"c. c #858D6E",
"v. c #958E66",
"b. c #99936B",
"n. c #85927B",
"m. c #8A9478",
"M. c #929570",
"N. c #959877",
"B. c #E1B961",
"V. c #E9C844",
"C. c #E5D142",
"Z. c #EED849",
"A. c #F3D545",
"S. c #F1D251",
"D. c #F8E546",
"F. c #FAEB43",
"G. c #FCF345",
"H. c #FDF844",
"J. c #FEF34A",
"K. c #FDF84C",
"L. c #FBED55",
"P. c #FAE85C",
"I. c #FEF553",
"U. c #FFFA54",
"Y. c #FEF55C",
"T. c #F6F85E",
"R. c #FEFA5C",
"E. c #FDEC65",
"W. c #F7F767",
"Q. c #FDF663",
"!. c #FDFA64",
"~. c #FEF669",
"^. c #FDFA69",
"/. c #FCEB7C",
"(. c #FAF876",
"). c #749A95",
"_. c #7D9B94",
"`. c #7AA29F",
"'. c #5F9EB0",
"]. c #679DA8",
"[. c #7D9DA0",
"{. c #5EA1B7",
"}. c #5CA2BC",
"|. c #6AA0AA",
" X c #74A2A6",
".X c #74A4AB",
"XX c #7AA6AD",
"oX c #68A5B9",
"OX c #77AAB6",
"+X c #4B9FC6",
"@X c #4C9FC8",
"#X c #4DA1C6",
"$X c #4EA2C9",
"%X c #51A4C6",
"&X c #59A3C2",
"*X c #52A5CB",
"=X c #55A9CE",
"-X c #5BABCB",
";X c #56AAD0",
":X c #5AADD3",
">X c #5EB1D4",
",X c #64A9C5",
"<X c #6CAEC2",
"1X c #63ADCB",
"2X c #73AFC1",
"3X c #67B0CC",
"4X c #6DB2CC",
"5X c #61AFD3",
"6X c #64B3D4",
"7X c #69B5D5",
"8X c #69B7D8",
"9X c #68B8D8",
"0X c #6CB9D9",
"qX c #8A9B86",
"wX c #859D92",
"eX c #85A296",
"rX c #83A4A3",
"tX c #FBEA85",
"yX c #FCF989",
"uX c #FCF69A",
"iX c #FDF7A3",
"pX c #FEFAAD",
"aX c #FDF7BA",
"sX c #FEFCBC",
"dX c #FEFAC2",
"fX c #FDFCCD",
"gX c #FBFBD4",
"hX c #FEFBD4",
"jX c #FCFBDB",
"kX c #FFFAE0",
/* pixels */
"0X0X0X0X9X9X9X9X9X9X>X9X>X>X9X>X>X>X>X>X>X>X>X>X-X>X>X<XXXeXN.l.) 2 = ; < 0 k.N.eX XoX-X*X*X*X*X&X%X*X*X*X*X*X%X%X%X#X%X#X#X#X#X",
"0X0X9X9X9X9X9X9X9X6X9X9X9X>X9X>X>X5X6X6X6X-X>X>X>XOXv.7 - * & w & w q * & q q y $ = O h.eX,X%X%X*X*X*X*X*X=X%X*X%X%X#X#X%X}.}.#X",
"0X8X9X8X9X9X7X7X6X6X9X6X6X6X6X>X6X6X>X6X>X>XoXm.9 = q q l W R | } O.$.X.X.} [ [ I l e - r 9 m.,X&X*X*X*X%X%X%X%X%X}.#X}.#X#X+X#X",
"0X8X8X8X7X9X7X7X6X9X6X9X6X6X6X6X5X5X5X6XOXN.7 r w d V ..&.+.+.@.@.O.O.+.@.@.#.O.$.$.O. .N p - g. X*X%X&X%X%X%X%X%X%X#X#X#X#X#X#X",
"0X7X7X7X7X7X6X7X6X9X6X9X6X6X1X6X5X5X3XeX# % w n F J $.O.O.O.@.O.O.O.O.@.O.@.O.@.@.@.o.O.O.O.S * X _.%X%X%X*X%X%X%X#X%X%X}.#X#X#X",
"0X0X7X0X7X7X6X6X6X6X6X9X6X6X>X6X6XOXj.= > n G J K 1.O.O.$.O.$.O.O.O.O.O.O.O.@.O.O.O.O.O.O.O.O.-.e , 3 $X%X%X%X%X%X#X}.#X#X#X#X#X",
"7X7X7X7X7X7X7X7X9X6X6X6X6X6X6X3XeX2 q f C P J [ O.O.O.O.$.+.@.@.@.O.O.O.+.O.O.$.O.O.O.O.@.@.o.O.-.d 6 _.%X*X%X%X$X%X%X%X#X}.#X#X",
"7X7X7X7X9X0X7X6X6X6X6X6X6X6X3Xb.= % D P J J [ $.O.@.@.@.@.@.o.O.$.:.-./ ^ W ! R  .:.1.$.O.O.O.+.@.:.w 1 }.%X%X*X$X$X#X#X#X#X#X#X",
"7X7X7X6X8X8X7X3X6X9X9X7X5X4Xj.w u C T U J [ O.O.O.O.+.O.$.-.P e u w * & & &   & - q t a k ~ :.O.$.O.=.q g.%X%X%X$X$X*X%X%X#X#X%X",
"9X7X7X7X7X7X7X7X7X6X9X6XOXh.& f L J J J [ O.O.O.O.O.#.I l * & & z v _ ] q.q.C.Z.Z.q.7.] ] _ a S [ #.$.D & ).%X%X$X$X$X$X$X#X#X#X",
"9X7X7X7X7X7X7X6X6X9X9X4X9 $ h C J J U Y O.O.O.@.O.| e q   r _ E.~.!.!.!.!.!.!.R.!.R.!.!.^.R.<.,.-.K O.$.* X |.%X$X%X*X%X$X#X#X#X",
"7X7X7X7X7X7X7X6X7X6X7Xg.& h T J J C Y O.O.O.O...j - z ` S.Q.!.Q.!.!.!.R.!.!.!.!.!.!.!.!.!.H.&.O.@.+.o.O.j % . s.{.%X%X$X$X$X#X#X",
"7X7X7X7X7X6X7X7X0X4Xz.: k P U J J J O.O.$.&.L % t ` Y.Q.!.!.!.!.!.Q.!.!.Q.!.!.!.!.!.^.~.!.8.o.O.+.O.O.$.w % > % , l.).&X$X%X%X%X",
"7X7X7X7X7X7X7X6X7XqX: i P J J J U X.O.o.,.k & v E.(.W.T.R.!.!.!.!.!.!.!.Y.U.U.U.U.U.U.I.J.2.O.O.$.O.>.d * > ; > % % & + 3 }.#X#X",
"9X7X7X7X7X7X8X8XeX, u D J J J J } o.@.1.d g 0.uXdXhXpX(.!.!.!.R.U.G.i.r.9.9.4.3.3.3.3.3.3.&.O.$.-.g w & ; % % * > : % > w 6 8 3 ",
"8X7X6X7X7X7X7XOX9 > G J J J J Y O.o.,.a S 9.tXfXjXjXfXyXR.Y.i.r.2.#.+.O.O.X.{ -.;.-.;.;.Y L S g & $ & % > > > > * * * > % q 5 h.",
"7X7X7X7X3X7X7Xh.$ D C J J J J $.O.,.s ;.5.L.pXjXjXhXgXiXi.4.@.@.:.( n w & w * * w * * * % ; % & e E v ; $ * * % ; ; % : ; > ; m.",
"0X7X7X7X7X7XqX; h J J U J J { O.o.H 1.%.p.!.iXfXjXhXjX/.#.:.D e q * * & & 4 z x x x x x j Z R ..O.R $ 9 d.v.v.a.O - & w * > o '.",
"0X7X7X7X8XXX2 u C J J J J Y O.@.O.#.&.i.!.!.pXfXhXhXaXA.A q $ * * & v 7.T.Q.Y.Q.Q.Q.!.U.<.O.#.@.=.w 8 }.*X%X%X$X&X].c.8 . - c.$X",
"7X7X7X4X7Xk.% D J J J J J O.O.O.@.@.y.Q.W.(.sXgXaXuXB.& % * % * 5 A.~.~.!.!.!.^.!.R.R.H.*.} O.;.q 7 ].%X$X$X$X$X#X$X$X$X].3 }.+X",
"7X7X7X7XwX- h P U J J J  .O.O.O.@.2.I.^.!.(.aXiX8.z $ % & &   q.P.Q.!.~.!.!.!.R.!.Y.I.9.&.&.D % 9 ].%X%X$X$X%X$X$X$X%X#X+X$X+X+X",
"7X7X7X0X# u C U U U J H $.O.O.O.%.H.^.!.H.8.y.' q ; p :   c P.Q.W.!.^.!.!.R.R.I.u.5.&.#.| M - l.}.*X$X*X$X$X$X$X$X%X$X#X+X+X+X+X",
"7X4X8XqX% Z J G J J J [ O.O.O.#.u.!.^.K.4.1.P ; % l r & ` ~.^.^.!.!.^.T.R.G.r.o.&.$./ k a 6 ).$X%X*X*X$X%X%X$X%X$X$X$X#X#X#X#X+X",
"7X7X2X6 y L U U H U K $.O.O.O.5.Y.^.I.8.O.V q w ' r & V.!.W.~.~.!.Q.R.G.8.3.$.:.N e * 1 3 }.%X$X*X*X$X*X$X$X$X$X$X%X%X#X#X+X#X#X",
"7X7XqX: D J J U J H { O.O.O.#.J.!.I.e.#.S & e ~ * 4 Z.Q.!.T.!.!.~.J.t.%.$.K l % 5 l.3 }.=X=X=X$X*X%X*X*X$X*X$X%X$X#X#X#X#X#X#X+X",
"7X4X7 > U J J J J J &...O.@.t.R.K.8.&.T & q =.q z L.T.!.^.R.!.R.u.%.3.| u ; # b.}.*X*X*X=X$X$X$X*X$X$X%X$X$X%X$X$X#X#X#X$X#X+X+X",
"9XrX; A J J J J J [ 1.L #.%.I.!.t.$. .q & -.N 4 w.(.~.^.^.!.K.4.&.:.f * @ ).&X=X*X*X*X*X$X=X$X$X$X$X$X$X$X$X%X$X$X#X#X$X#X#X#X#X",
"7Xz.> L J J J J J :.M -.&.t.U.u.#.=.q q / L q q.yXpXuXyX^.J.4.1.D r 6 M.&X*X*X*X=X*X*X*X=X$X$X=X%X$X*X%X%X$X$X%X$X#X#X$X#X+X#X+X",
"2XX i J J J J J K ;.e O.%.J.F.$.X.&   Y :.a B tXjXkXjXpXL.%.{ P & h.oX=X*X*X*X=X*X*X*X*X=X$X%X*X*X*X$X*X$X$X%X$X$X$X@X@X#X#X#X#X",
"eX% A C J J J H =.s =.@.t.I.4.$.a w ! $.N M A.sXjXgXhXgXD.X.d   c.&X$X=X=X*X*X*X*X=X=X*X=X*X*X*X$X$X*X$X%X$X$X%X$X$X$X@X#X#X@X#X",
"N.* T L J J J J ^ w $.+.J.r.#.S * g 1.;.j $.E.dXjXjXjXfXS.l z qX*X*X=X$X*X=X=X*X*X*X=X=X$X=X*X$X*X$X$X*X$X$X$X$X$X$X$X@X@X@X@X#X",
"j.u U J J U J / u l #.6.F.3.R % e } o.M =.6.~.sXfXjXjXaX_ t _.*X*X*X=X%X=X*X=X*X%X=X*X$X=X$X*X$X%X$X$X%X$X$X$X$X$X$X$X@X@X@X@X@X",
"z i U P J J C W w :.&.p.2.X.u * R $.$.^ o.F.!.uXfXfXsXB.= c.&X=X-X=X*X=X*X=X*X=X*X*X*X*X=X%X*X%X*X%X$X$X$X%X$X%X$X$X#X#X#X#X#X#X",
"2 y U L J J T u u $.+.t.#.N & b $.O.} o.6.Q.^.uXjXiXA.; a.-X;X=X=X=X=X*X=X*X=X*X=X*X*X*X*X*X*X%X*X$X$X%X$X$X%X$X$X$X#X#X#X#X#X#X",
"0 y J J J C A w N O.6.&.;.* w P $.@.O.@.u.^.R.yXdXE.r 7 oX*X=X=X=X=X*X*X*X*X*X=X=X*X*X*X*X*X*X*X*X$X*X$X$X$X%X$X$X#X#X$X#X#X#X#X",
"x.y U J J U d q ,.o.&.$.e & Z Y O.@.o.o.G.^.T.F.Z.B w _.*X=X=X&X*X=X*X=X=X=X*X*X*X=X*X*X*X*X*X%X*X%X*X$X*X%X$X%X$X#X#X#X#X#X#X#X",
"M.> T J J G * j O.O.$./ * p T O.O.O.O.4.I.^.I.2.,.* s.-X-X*X*X*X=X=X=X*X*X*X=X*X*X*X*X*X*X*X*X*X*X*X*X$X$X$X%X$X#X#X#X#X#X#X#X#X",
"wX* G J J Z & P @.o.$.w > A J O.@.O.@.u.!.^.i.o.l < ,X-X;X=X-X=X=X=X%X=X*X=X=X*X*X*X*X*X*X*X*X*X*X$X$X$X$X$X$X$X#X#X#X#X#X#X#X#X",
"XX$ n R J w * ,.@.O.S & b U Y O.O.O.+.G.^.I.2.[ & n.-X;X=X=X=X=X=X*X=X*X%X=X*X*X*X*X*X*X%X*X*X$X*X*X$X$X$X$X$X%X#X#X#X#X#X#X#X#X",
"4X@ i U D * l O.#.R w * C J [ O.O.O.2.I.!.y.&.l - ,X:X;X-X=X=X=X=X=X*X=X=X*X=X*X*X*X*X*X*X$X$X%X$X%X*X$X$X%X%X$X#X#X#X#X#X#X#X#X",
"6Xb.> D m % P O.=.* $ A J J [ O.O.@.8.!.I.2.X.$ f.-X;X:X=X=X=X=X*X*X*X=X=X*X=X*X=X=X*X*X*X*X%X*X*X$X*X$X$X$X#X$X#X#X#X#X#X#X#X#X",
"6XXX; w & > =.^ q $ m U U U ..$.O.@.F.T.u.#.S , 1X:X:X=X-X=X=X;X=X=X*X*X*X=X*X*X%X%X*X*X$X*X*X*X%X*X$X*X$X$X$X$X#X#X#X#X#X#X#X#X",
"6X1X8 = ; ; t - > n J J J J $.O.O.@.K.R.6.X.* h.=X:X;X;X;X;X;X;X=X*X=X*X*X*X=X*X*X*X*X*X*X*X*X%X$X%X$X$X$X$X$X#X#X#X#X#X#X#X#X#X",
"6X6XXX1 : = ; : h J J J J J X.^ O.$.K.J.%.M ; .X:X=X>X>X:X=X;X;X=X=X*X=X=X*X*X*X*X*X%X*X%X*X*X*X*X%X$X$X$X$X$X$X#X#X#X#X#X#X#X#X",
"6X3X5XOXl.m.x.= A J J J J K :.M O.%.U.t.1.f 9 -X;X;X;X;X;X;X:X=X=X=X*X=X*X=X=X$X*X*X*X*X*X*X$X*X$X*X$X%X$X$X$X$X#X#X#X+X#X#X#X+X",
"6X6X5X5X1X5Xb.; U U J J J K =.M O.4.R.2.| q n.:X;X;X;X-X:X;X:X=X=X=X=X*X=X*X*X=X*X*X*X*X*X*X=X$X%X*X$X*X$X$X$X$X#X#X#X#X#X#X+X+X",
"6X5X5X5X5X6Xb.; U J J J J K ^ M $.8.H.$.M 1 ,X:X;X-X=X:X:X;X=X=X=X=X*X=X*X=X*X$X$X*X*X=X*X$X$X$X*X%X%X*X$X$X$X$X#X#X#X#X#X#X#X+X",
"6X5X5X5X5X>Xl.y U J J J J [ N N %.F.e.X.a g.:X-X:X;X=X;X:X;X=X=X*X*X*X*X*X*X*X=X*X=X*X*X=X%X=X=X*X$X$X*X$X$X$X$X#X#X#X#X#X+X+X+X",
"6X6X-X6X>X>Xl.y J J J U J  .j S $.K.3.:.& qX:X:X-X;X;X-X-X;X;X-X;X*X*X*X*X;X;X$X$X;X@X;X;X;X@X;X$X$X%X*X$X$X*X$X$X$X$X@X$X@X@X@X",
">X5X5X:X>X>Xl.y J J J J J | q I $.H.O.^ $ oX:X:X:X;X=X:X:X;X:X;X;X;X;X;X;X;X$X*X;X$X;X;X@X@X@X;X%X*X$X*X$X$X$X$X$X$X$X@X@X@X@X@X",
"6X5X5X5X:X6Xz.y J J J J U / q X.#.p.O.e 7 :X:X:X;X;X;X:X;X:X:X:X*X;X;X*X*X*X*X;X$X;X;X@X;X@X;X@X$X*X$X%X$X*X$X$X$X$X$X$X@X@X@X@X",
"5X5X5X5X6X>Xf.w U J J U J G ; X.&.6.$.p v.>X:X:X:X:X;X:X:X;X:X;X;X;X*X;X;X*X*X*X$X;X@X;X;X;X@X;X*X*X*X*X$X$X$X$X$X$X$X$X@X@X@X@X",
":X5X>X>X>X>XM.% T J U J J b * $.&.+.X.q wX:X:X:X:X-X;X:X;X;X;X;X;X;X*X;X*X;X*X*X$X$X;X$X@X;X@X@X*X$X*X$X$X$X$X$X$X$X$X$X@X$X$X@X",
"5X:X>X>X>X>X[.< V J J J U u w $.@.o./ t oX:X:X:X:X:X;X:X;X=X;X=X;X;X;X$X;X;X;X*X;X;X;X;X;X@X;X;X*X*X*X*X*X$X$X$X$X$X$X$X@X@X@X$X",
">X>X:X>X>X>X5X# i J J J U u y $.O.@.j 6 1X:X:X-X:X:X:X;X>X;X=X;X;X;X;X$X;X;X;X;X;X;X;X$X@X;X;X@X*X*X*X*X$X$X*X$X$X$X$X@X@X@X@X@X",
">X>X>X>X>X>X:Xv.> Q J U J u w $.@.O.w f.:X:X:X:X:X;X:X;X;X=X;X;X;X;X=X;X$X;X$X;X$X@X;X;X;X;X@X;X$X*X$X$X$X$X*X$X$X$X$X@X@X@X@X@X",
":X>X>X:X>X>X>XoX; n T U U u w O.O.:.*  X:X:X:X:X:X:X:X:X:X;X;X;X;X=X=X=X*X=X=X*X;X;X@X;X;X@X;X@X;X@X;X@X@X;X;X@X$X$X$X$X$X$X@X@X",
">X:X>X:X>X>X>X>Xh.; T U P u u $.@.M , 1X:X:X:X:X:X:X:X;X;X:X;X;X;X=X;X*X=X*X=X=X@X;X;X@X@X;X;X@X@X;X@X@X@X@X@X$X$X$X$X$X$X@X@X@X",
":X>X:X>X>X>X>X>XXX- b F L y u #.*.w 3 >X5X:X:X:X:X;X>X;X:X;X;X;X;X;X;X;X*X;X*X;X;X;X;X@X;X@X;X;X;X@X@X;X$X;X@X$X$X$X$X$X$X@X@X@X",
">X:X>X>X>X>X>X:X:Xd.: W G y u ,.M 5 >X>X:X:X:X:X;X;X;X;X>X;X:X;X;X;X;X*X;X*X;X*X@X;X;X;X@X;X;X@X@X;X;X;X@X@X@X;X$X$X$X$X$X@X@X@X",
":X:X>X:X>X>X:X>X>X,Xo w y % & a 5 `.>X:X:X:X:X:X;X>X;X;X:X;X;X;X=X;X*X;X;X*X;X*X@X;X;X;X;X;X@X;X;X$X$X;X;X@X@X@X;X@X;X@X$X$X@X$X",
">X>X>X:X:X>X>X>X:X:X X2 : * % = ).:X:X:X:X:X:X:X>X;X>X>X;X:X;X:X;X;X;X;X*X;X*X=X;X;X;X@X@X@X;X@X$X;X;X@X@X;X;X@X@X@X@X@X$X$X@X@X",
":X:X:X:X>X>X:X:X>X>X>X[., > % v.>X>X>X:X>X>X:X:X;X>X>X;X:X;X:X:X;X;X;X;X=X;X;X;X;X;X;X;X;X;X;X;X@X;X$X;X@X@X;X@X@X;X@X;X@X@X$X@X",
":X:X:X:X>X:X:X>X:X>X>X:XOXm.wX>X:X:X:X>X:X:X:X:X;X>X;X;X:X:X:X;X;X;X;X;X;X;X*X;X;X;X@X;X@X;X@X;X;X@X;X@X;X@X@X;X@X@X@X;X$X;X$X@X"
};
