/* XPM */
static char *tree1714407347[] = {
/* columns rows colors chars-per-pixel */
"64 64 229 2 ",
"   c #373C06",
".  c #6E1E03",
"X  c #661C0C",
"o  c #731C01",
"O  c #761B06",
"+  c #641B12",
"@  c #5A2D08",
"#  c #563E05",
"$  c #642A07",
"%  c #762605",
"&  c #683B0B",
"*  c #79370C",
"=  c #66271C",
"-  c #773210",
";  c #532D2C",
":  c #5D322C",
">  c #2D6905",
",  c #346A08",
"<  c #2F7507",
"1  c #3B7305",
"2  c #3C7907",
"3  c #335D30",
"4  c #376831",
"5  c #424806",
"6  c #4D5109",
"7  c #565807",
"8  c #5B5711",
"9  c #694A0F",
"0  c #73550C",
"q  c #7B4915",
"w  c #765813",
"e  c #44620B",
"r  c #58690C",
"t  c #437B04",
"y  c #467908",
"u  c #4B7D0A",
"i  c #58770B",
"p  c #467815",
"a  c #597613",
"s  c #67690D",
"d  c #756A19",
"f  c #637519",
"g  c #757310",
"h  c #4E762B",
"j  c #436E37",
"k  c #497639",
"l  c #53474C",
"z  c #4E4D51",
"x  c #544E52",
"c  c #4B7948",
"v  c #477D5A",
"b  c #596877",
"n  c #862A0A",
"m  c #842C0B",
"M  c #85390F",
"N  c #96360D",
"B  c #832E10",
"V  c #8D3312",
"C  c #8D3C16",
"Z  c #933411",
"A  c #943A15",
"S  c #9D3D14",
"D  c #9C3C1A",
"F  c #A03E15",
"G  c #84450E",
"H  c #884911",
"J  c #994317",
"K  c #A24115",
"L  c #A3441A",
"P  c #A84518",
"I  c #B55228",
"U  c #C76538",
"Y  c #976558",
"T  c #BB6B47",
"R  c #866F62",
"E  c #C7734F",
"W  c #CB7448",
"Q  c #D57344",
"!  c #D47952",
"~  c #3D8709",
"^  c #3E9104",
"/  c #4C8504",
"(  c #448D04",
")  c #498C04",
"_  c #468608",
"`  c #4C830B",
"'  c #538503",
"]  c #52860C",
"[  c #578C0B",
"{  c #4A9706",
"}  c #579908",
"|  c #549B0B",
" . c #4A8415",
".. c #568816",
"X. c #4E9A17",
"o. c #569816",
"O. c #5B9E13",
"+. c #61840D",
"@. c #62970D",
"#. c #638C14",
"$. c #659617",
"%. c #55A402",
"&. c #5BA604",
"*. c #55AA03",
"=. c #5AA903",
"-. c #5CA50A",
";. c #57A809",
":. c #5CAB09",
">. c #5BB208",
",. c #5CA313",
"<. c #5DA31D",
"1. c #5CB412",
"2. c #61A30B",
"3. c #61A808",
"4. c #64B30B",
"5. c #66A618",
"6. c #6DB41E",
"7. c #65B819",
"8. c #71BF1F",
"9. c #4B812C",
"0. c #5C9622",
"q. c #548A31",
"w. c #659C27",
"e. c #669A36",
"r. c #65A323",
"t. c #67A825",
"y. c #6AAB24",
"u. c #6EAB2C",
"i. c #72AE25",
"p. c #6EB524",
"a. c #6AB824",
"s. c #6DB42B",
"d. c #71B524",
"f. c #72B429",
"g. c #75BB2B",
"h. c #69A837",
"j. c #73AB38",
"k. c #6EB13A",
"l. c #74B838",
"z. c #7CBC3B",
"x. c #68C219",
"c. c #6DC425",
"v. c #74CC28",
"b. c #7CD427",
"n. c #79C736",
"m. c #55934C",
"M. c #67A948",
"N. c #75AE46",
"B. c #7DB544",
"V. c #72BA59",
"C. c #4C896C",
"Z. c #589477",
"A. c #679E6F",
"S. c #5DA263",
"D. c #5BA477",
"F. c #70AE6A",
"G. c #6DB371",
"H. c #75C446",
"J. c #80BC3F",
"K. c #83BB48",
"L. c #86BC54",
"P. c #A68371",
"I. c #8AB16E",
"U. c #88C549",
"Y. c #93C55C",
"T. c #93CC5B",
"R. c #97C967",
"E. c #9CD466",
"W. c #9AC871",
"Q. c #A1CC73",
"!. c #A7DA75",
"~. c #AADE7C",
"^. c #57778B",
"/. c #539983",
"(. c #52908D",
"). c #5C8196",
"_. c #5C849B",
"`. c #559A9D",
"'. c #6D8F8F",
"]. c #5BA39D",
"[. c #5FB39C",
"{. c #6FAD90",
"}. c #63A89E",
"|. c #4F8FA0",
" X c #5588A3",
".X c #4B98AB",
"XX c #5B9DA4",
"oX c #4D9EB9",
"OX c #5399B6",
"+X c #6999AD",
"@X c #7A98A3",
"#X c #5AA6A9",
"$X c #54A4B9",
"%X c #5BA5BC",
"&X c #62A9A7",
"*X c #75AFAA",
"=X c #69A8B6",
"-X c #66AEBD",
";X c #69B2B8",
":X c #4B9FC6",
">X c #4DA1C6",
",X c #4EA2C9",
"<X c #51A4C6",
"1X c #5AA7C5",
"2X c #52A6CB",
"3X c #55A9CD",
"4X c #5AACCE",
"5X c #56A9D0",
"6X c #5AADD3",
"7X c #5BAED8",
"8X c #5EB1D4",
"9X c #64ABC3",
"0X c #63ADCB",
"qX c #68B3C9",
"wX c #61AFD3",
"eX c #63B2D3",
"rX c #69B5D5",
"tX c #66B7D8",
"yX c #68B7D8",
"uX c #65B8D8",
"iX c #6BB9DA",
"pX c #8C8B89",
"aX c #8EBE91",
"sX c #94C28E",
"dX c #ADDD83",
"fX c #A8D08D",
"gX c #B3DC87",
"hX c #B1E187",
"jX c #92C8AF",
/* pixels */
"iXiXiXiXiXyXiXiXtXuXuXuX8XuX8X8X8XuX8XuX8X8X8X8X4X8X4X4X8X4X4X4X4X8X4X5X3X3X5X5X4X3X3X3X3X3X3X$X3X3X3X3X2X3X2X<X<X3X<X<X<X>X$X<X",
"iXiXiXiXyXiXyXiXyXuXuXuXuXuXuX8XtX8X8X8X8X8X8X8X8X4X4X8X6X4X8X4X4X4X4X4X4X5X5X4X4X3X3X3X3X3X3X3X3X<X2X3X2X3X2X<X<X<X<X<X<X>X>X>X",
"iXiXiXiXuXyXuXiXiXuXuXuXuXuXuX8X8X8X8X8X8X8XuX4X4X8X4X8X4X6X4X4X4X4X4X3X3X5X5X5X3X3X3X4X3X3X<X3X<X<X2X2X2X2X3X<X<X>X$X<X>X>X>X>X",
"iXiXiXiXiXrXuXiXtX0X].-X8X8XuX8X8X8X8X8X8X8X8X8X8X4X4X8X6X4X4X4X4X4X4X4X5X5X5X5X4X3X3X$X$X3X3X<X3X<X2X2X<X3X3X<X<X>X2X<X$X>X>X>X",
"iXiXyXyXrXyXyXqXG.c.x.7.M.}.eX8X8XeX8X8X8X8X8X8X4X4X4X8X4X4X4X4X4X4X3X4X3X3X3X3X3X3X3X3X<X4X<X<X<X<X3X<X3X3X<X<X<X>X$X>X>X>X>X$X",
"iXiXrXiXyXrXyXG.x.=.=.=.*.-.].eXeX8X8XqX8X0X4X0X8X4X4XqX4X4X4X4X4X4X$X4X3X3X3X3X3X4X<X3X<X<X3X3X<X<X<X<X<X<X<X<X<X<X>X>X>X>X>X>X",
"iXiXiXrXrXrXyXH.4.&.=.=.=.=.O.%X8XeXeXeX8X8X4X6X4X4X4X4X4X4X4X4X4X4X<X4X4X<X3X3X4X<X4X<X4X<X<X<X<X<X<X3X<X<X<X<X$X<X>X>X>X>X>X>X",
"iXiXiXrXrXyXrXH.{ %.*.=.=.=.3.m.8XqX8X8X4X4X4X6X4X4X4X4X4X4X4X4X3X3X4X4X<X4X<X3X<X4X<X<X4X<X4X<X3X<X<X<X<X<X<X<X<X<X<X<X$X>X$X>X",
"yXuXrXrXeXeXrXM.:.=.=.&.r.K.L.j.XX4X4XqX9XqX=X0X4X4X4X4X4X4X4X3X4X4X4X3X4X<X3X4X<X3X3X<X<X3X<X<X2X<X<X<X<X<X<X<X<X>X<X>X<X>X>X>X",
"yXrXrXrXyX;Xs.a.3.=.-.L.hXdXdXgXfX=X=XaXhXgX~.fX;X4X4X4X4X3X4X3X$X4X$X3X<X4X3X<X4X<X4X<X3X<X<X<X2X<X<X<X<X<X>X2X2X<X<X>X>X<X>X>X",
"iXrXrXrXrXa.>.-.( -.N.~.K.i.l.U.gXI.gX~.U.d.f.d.T.$X4X4X4X4X3X1X3X4X4X3X4X<X3X3X3X<X$X3X3X<X<X3X<X<X<X<X<X<X2X,X<X>X>X2X<X>X>X>X",
"iXrXrXrXqXv.3.=.=.2.hXK.d.6.6.p.U.W.E.g.f.f.d.f.6.{.4X4X4X3X4X3X4X3X3X3X<X3X<X<X<X3X<X3X<X<X<X<X<X<X<X<X<X<X,X2X2X,X2X>X<X<X>X>X",
"rXyXrXrXrXh.*.=.&.5.R.o.a.f.f.d.f.B.f.s.i.y.y.6.d.L.aX=X0X4X4X3X3X3X3X3X$X4X2X3X3X<X<X3X<X<X2X2X2X<X<X<X<X<X,X,X<X,X,X,X>X,X>X>X",
"rXrXrXrXeX&X,.*.&.O.j.u.y.z.u.y.d.6.d.u.R.E.u.f.a.s.p.Y.{.4X3X4X3X3X3X3X3X3X3X2X<X4X3X3X3X<X<X<X<X2X<X3X,X<X<X<X<X,X<X<X2X,X>X>X",
"rXrXrXrXrXeXqXO.=.-.2 e.!.z.d.f.d.p.p.e.K.d.d.p.s.p.6.s.d.{.3X4X3X3X3X<X3X3X3X3X3X3X3X2X2X2X2X2X2X2X2X<X2X,X2X<X,X,X,X,X,X>X>X>X",
"rXrXrXrXeXG.v.>.=.=.o.~.g.p.p.p.d.d.f. .z.d.d.s.d.d.p.8.d.u.4X3X$X4X3X3X3X2X2X3X3X3X2X3X3X<X3X<X<X<X2X<X,X<X,X,X<X,X,X<X>X,X>X>X",
"rXrXrXrX=Xn.=.=.=.&.M.U.d.d.d.d.d.d.p.u.y.d.d.w.R.R.L.w.f.d.9X3X3X3X3X3X2X3X2X3X3X2X3X2X2X2X2X2X2X,X2X2X2X>X2X2X,X,X>X<X,X,X>X>X",
"uXrXrXrX-Xc.:.*.=.%.I.i.d.d.d.d.d.a.d.d.d.d.j.~.U.g.B.E.u.K.{.3X2X3X3X2X5X3X3X2X2X3X2X2X2X2X2X2X2X2X2X<X2X>X,X<X<X,X,X,X,X>X>X>X",
"iXrXqXrXrXA.&.=.=.-.e.` 5.f.d.a.d.5.d.p.p.a.z.5.&.%.=.:.w.d.z.'.3X2X3X3X3X2X2X3X3X2X2X2X2X2X2X2X<X2X,X,X2X2X2X,X,X,X2X>X>X,X>X>X",
"iXrXrXrXrXrXqXZ.> 2 p u / _ y.$._ t p.a.p.s.w.| v.{ =.=.=.=.:.fX3X3X2X5X2X5X5X2X2X2X2X2X2X,X2X2X2X2X,X2X>X2X<X,X,X<X,X>X>X>X>X>X",
"rXrXrXrXrXrX-Xa u ` / , t t t t 2 , ` p.w.i.7.:.=.=.=.*.=.=.=.F.2X3X3X3X2X3X2X2X2X2X3X2X2X2X2X<X2X,X,X2X,X,X<X>X,X,X<X>X>X>X>X>X",
"rXrXrXrXrXrXZ.2 / / / ] y 1 1 y u y y [ w.p v.*.=.=.=.*.=.=.=. .G.jX<X3X2X2X2X5X2X3X2X2X2X2X2X,X2X2X2X<X,X,X<X>X>X,X,X>X>X>X>X>X",
"rXrXrXrXrXrX/.p ) ' ` ' y ` ` / / u 1 2 y e a.7.=.=.=.=.=.=.=.=.*.!.{.5X2X3X3X3X2X2X3X2X2X2X2X>X2X,X2X,X<X<X,X,X,X<X>X>X>X>X>X>X",
"rXrXrXrXqXrXrXc 2 7.7.p u u / u ' ' u , r 8 X.b.{ ) ] =.=.=.%.%.*.T.jX5X2X3X2X3X2X2X2X3X2X2X2X2X2X2X,X2X,X,X,X<X,X,X>X>X>X>X>X>X",
"rXrXrXrXrXeXeX&X6.4.:.x.) u < < ` / / ' 6 8 v.*.*.=.# -.*.&.{ &.;.!.*X2X2X,X2X5X2X2X2X2X2X2X2X,X2X2X,X<X<X,X<X>X<X,X,X>X>X>X>X>X",
"rXqXrXrXeXqXrXA.&.&.*.;.<.y.i.4.o./ / / w 5 v.>.&.=.d i *.} &._ U.sX].S.S.C.2X2X2X2X1X9X2X2X<X2X<X,X2X2X,X,X>X,X,X>X>X>X>X>X>X>X",
"rX0XrX0XeXrX0XS.| -.' -.>.s J #.| o.] r - y  .1.=.=.9   -.) :.o.B.Z.,.*.=.;.C.2X2X*XQ.T.}.OX1X2X,X2X2X,X<X,X,X,X<X>X>X>X>X>X>X>X",
"rXrXrXrXeXrX9X( :.&.@ [ =.+.J 5 | x...J 7 2 v.4.{ 3.G 5 ^ { ` &.%.-.~ %.*.*...$X<Xh.2.=.5.W.*X1X<X<X,X,X<X,X,X,X,X>X>X,X>X>X>X>X",
"rXrXeXeXrX0XeXe.:.=.i # 3.@.J @ &.@.H $ ] ,._ ;.&.g H $.} 4.*.*.{ < 3.} :.=.=.=. .X.} 5 7 $.M.M.H.H.D.>X,X,X,X,X,X>X>X:X>X>X:X:X",
"rX0XeXeXeXeXeX9.-.=.@.* i | M m [ 0 C i / a.=.:.s A A H 5 6.*.&.3.=.) g.&.=.{ =._ _ i d 0 9 q d ;.*.x..X>X,X,X,X,X,X>X,X>X>X:X:X",
"rXrXrXeXrXrXeXh _ { { 9 $ [ $ D 8 J @ ' (  .i.w J G w 5 ' o.m.*.*.&.=.n.-.5.{ %.k v 4 } &.-.a w * g ;.<.c.#X>X>X,X,X,X,X>X:X:X:X",
"rX0XwXrXrX0XrX_.9.p j h M @ & K % Z   ' / 7 J * f 2._ p.:.h.].>.4.Z.V.C.0.O.%.} p <Xa.=.&.%.5.q.o.9 9 -.*.X.$XoX[.>X,X,X>X:X:X:X",
"rXeX0XeXeXeXeXeXeX0XwX4 8 A * K A n i ` w C : OX%Xn.s.2 2 1X1X/.&X2X3X,X<XoX(.3 $X2Xc.1.*.>.V.].*.>.e & $.~ 8.:.;.c..X>X>X>X>X>X",
"rXeXeXrXeX8XeXeXeXeXeX0XeXR K K K * i q V z 7X6X4X1X/.Z.1X3X0X3X3X2X2X3X3X2X2X3X2X2X$Xk.b.D..X/.*.*.&.+.# 7 2.{ ( =./.>X>X>X>X>X",
"rX0X0XeXeXeXeX0XwXeXwXwXeX+XI K K B q Z x 6X1X6X4X4X4X3X5X3X3X2X3X3X2X2X2X5X2X5X3X2X3X2X2X2X2X.X` { %.=.2.e s 7 a 2 n..X>X>X>X:X",
"rXeXrX0XeXeXeXeXeXeXwXwXwXwXE K K S J X 4X6X4X4X4X4X4X4X3X3X3X2X3X3X2X3X2X2X2X2X2X2X2X2X2X2X<X2X`.k o.*.%.,.u } u  X>X,X>X>X>XoX",
"rXeXwXeXeXeXeXeXeX6XeX8X8X4XT P L K A z 5X6X6XwX6X6X6X3X3X3X5X3X3X2X2X2X3X3X2X5X2X2X2X<X2X2X3X,X2X2Xv { &.j oX`.oX>X>X>X>X:X>X:X",
"uXeXwXeXeXeXeX8XeXeXeX8XeX6XT P K K n +X4X6X6X5X6X4X6X4X5X5X3X5X5X5X3X2X2X2X3X2X3X2X3X<X2X2X,X2X2X2X.Xc 4 oX2X,X>X>X>X>X>X>X:X:X",
"rXeXeXeXrXeXeX8XeX8X8X8X8XwX! P J K o l 6X6X6X5X6X5X5X5X5X3X5X3X2X2X2X5X2X3X2X2X2X2X2X2X2X<X2X<X<X>X2X2X2X>X2X>X>X>X>X>X>X>X>X:X",
"wX0XrXwX0XeXeXeXeXeX8X8X6X6X! L F K o ; 7X6XwX6X6X4X6X5X5X3X3X5X3X5X2X3X2X3X2X2X2X2X2X,X2X2X,X<X,X2X2X>X2X,X>X2X>X>X>X>X:X:X>X:X",
"rXwXeXwXeXeXeXeXeXeX8X8X8X9X! L F K % + 6X6X7X6X6X5X6X3X5X5X3X3X3X3X2X2X2X5X2X2X2X2X2X2X3X,X2X3X2X>X2X>X,X>X>X2X,X>X>X>X>X>X>X>X",
"eXeXeXeXeXwXeXwXeX8X8X8X8X0X! L S F m . 0X6X5X4X6X3X4X6X6X3X5X3X5X2X2X3X2X2X2X2X2X2X2X2X,X3X2X,X2X2X,X2X,X2X,X>X>X>X>X>X>X>X>X>X",
"rXeXeXeXrXwXeXwXeX8X8X0X8X=X! P N K V o  XeX6X5X5X6X5X6X4X5X4X4X5X5X3X2X2X3X3X2X2X2X2X2X,X,X,X2X,X2X>X2X,X,X>X>X>X>X>X>X:X>X>X>X",
"eXwXeXwXwXeXwXwX8X8X8X8X8X@XQ P N K V o  X6X6X6X4X5X5X6X5X5X5X5X2X2X2X3X3X2X3X2X,X2X2X2X3X,X3X2X2X,X2X2X2X>X>X,X,X>X>X>X>X>X:X:X",
"eXeXeXeXwXeXwXwXwXeX8X8XiXpXQ F S J Z o _.6X6X7X5X5X5X6X6X5X5X2X5X2X3X2X2X5X2X2X2X2X2X2X2X2X,X2X,X,X<X,X,X,X>X2X,X,X,X:X:X>X:X>X",
"eXwXwXwXwXwX6XeX8X8X8X8XtXR U D K K V o ^.7X6X6X5X4X4X5X6X6X5X3X2X3X2X2X2X2X2X3X2X2X2X2X2X2X2X2X,X2X,X2X2X,X2X>X,X:X:X:X>X:X:X:X",
"wXwXwXwXwX8XeX8X8X8X8XeX6XW P S K F n o ^.6X6X4X6X3X3X6X4X5X4X3X3X2X2X2X2X2X5X2X5X2X5X2X2X,X2X2X<X,X2X,X,X,X:X,X,X:X:X,X>X:X:X:X",
"eXwXwXeX6X8X8X8X8X8X8XeX+XW K n K K n O _.6X6X5X6X5X3X5X6X6X6X5X5X3X5X3X3X2X2X3X2X2X2X2X3X2X2X,X2X2X,X<X,X,X,X,X,X,X,X:X>X:X:X:X",
"wXwXwXwXwX8X8X8X8X8X6X8XpXU F N K K o o ).6X7X6X4X5X5X6X6X5X6X5X5X5X5X2X5X,X5X,X,X5X,X,X,X5X5X,X2X2X,X<X,X,X,X,X,X,X,X,X>X:X,X:X",
"wXwXwXwXwX8X8X8X8X8XeX6XP.I P F K F o .  X6X7X1X5X6X1X6X5X4X4X5X5X5X2X2X5X5X,X5X5X,X7X5X5X,X,X,X,X2X2X,X,X,X,X,X,X,X,X,X,X>X:X:X",
"6XtXwX7XeX7XeX7X8X8X6X1XW K F F F S o O  X5X7X6X6X6X6X6X3X6X5X3X5X0X2X5X5X5X5X,X:X7X5X,X,X5X:X,X2X2X2X2X,X5X,X,X,X,X,X,X,X,X,X:X",
"7X6X7XeX7X8X7X7X8X6X8X@XI K F F S Z o O OX0X6X6X5X5X6X6X6X5X6X5X5X5X5X,X5X5X5X,X,X,X5X,X5X,X7X:X2X,X2X,X,X,X,X,X,X,X,X,X:X:X:X:X",
"6X6X7XwX7XeX6XtX8X7X7XY S F F K S n o X 6X6X6X6X6X6X5X6X5X5X3X3X5X5X2X5X5X,X5X5X7X5X,X5X:X,X7X7X2X2X5X,X,X,X,X,X,X,X,X,X:X:X,X,X",
"6XtX6X6X6X7X7XtX8X8X7X; o V L L n o . : 6X6X6X6X8X5X6X4X5X4X3X5X5X5X2X2X5X,X,X5X,X5X5X,X7X:X:X:X2X2X,X,X,X,X,X,X,X,X,X,X:X:X:X:X",
"6X6XwXtX8X6X7X6X8X7X8X^.o O o o o o o b 6X6X6X4X5X6X6X6X6X4X5X5X5X5X5X5X5X5X5X5X5X,X,X5X,X7X,X7X2X,X2X,X,X,X,X,X,X,X,X,X,X:X:X:X",
"6X7X7X6X7XtXwX7X8X8X8X8X= o o o o o . 9X6X6X6X6X8X5X6X5X6X6X6X5X5X5X5X1X5X,X5X,X5X5X5X,X:X7X,X,X,X2X,X3X,X,X,X5X,X,X,X,X,X,X:X:X",
"6X6X6XtX6XtX8X8X7X7X8X7Xb % . o O o = 1X7X7X6X6X6X6X7X5X5X5X7X5X5X5X5X1X2X2X5X2X,X7X,X,X7X:X7X:X,X,X,X,X,X,X,X,X,X,X,X,X,X,X,X:X",
"6X7X6X6X6X7X7X6X8X8X8X7X7Xl o o o O l 5XwX6X6X6X5X6X6X5XwX5X7X5X5X5X5X5X2X5X5X5X,X7X7X,X7X,X,X,X7X,X7X,X,X,X,X,X,X,X,X,X,X,X:X,X",
"wX7XwX6X6X7X6XeX7X8X8X8X7X1Xz o O X 1XwX5XwX6X6X6X6X7X5X5X5X5X5X5X5X5X5X5X2X2X5X:X,X7X,X:X,X7X:X:X7X:X,X7X:X,X,X,X:X,X,X,X:X,X,X",
"7X6X6X7X6X7X7X7X7X7X7X7X7X6X5X^.= l 7X6X7X6X7X5X6X6X5XwX5XwX5XwX5X5X5X5X5X5X2X5X7X7X,X:X7X:X:X7X,X:X7X,X,X,X,X,X,X7X,X,X,X,X,X,X",
"6X6X7X6X7X7X6X7X6XtX7X7X7X6X6XwX6X6XwX7X7X5X6X7X6X7X6X7X5X7X5X5X5X7X7X5X2X5X5X5X7X,X7X7X,X,X,X7X7X7X:X:X:X,X,X:X,X:X,X,X,X,X,X,X",
"6X7X6X7X6X7X7X8X7X7X6X6X7X7X7X7X7X6X7X5X7X7X6X6X6X5X7X5XeX7X5X7X7X5X5X5X5X5X2X5X,X7X,X,X7X7X,X,X:X,X:X7X7X,X,X7X,X7X,X,X,X,X,X,X",
"6X6X6X6X7X6X7X6X7X7X6X7X7X7X7X6X7X7X7X6X6X6X6X6X7X6X5X7X5X5X5X7X5X5X5X5X5X5X5X5X7X,X7X:X,X,X7X,X,X:X:X7X,X,X,X,X,X,X,X,X,X,X,X,X",
"7X7X5X7X6X7X7X7X7X7X7X6X6X7X7X7X7XwX5X7X6X7X7X6X5X6X6X5X6X7X5X5X7X5X5X5X5X5X5X2X,X7X,X7X,X7X,X,X7X7X,X:X,X,X7X,X,X7X,X,X,X,X,X,X"
};
