/* XPM */
static char *download_compresskaru_com1714408084[] = {
/* columns rows colors chars-per-pixel */
"64 64 227 2 ",
"   c #0B0A1A",
".  c #38050C",
"X  c #030F31",
"o  c #490906",
"O  c #520D08",
"+  c #5A170C",
"@  c #4D1D18",
"#  c #66190C",
"$  c #611814",
"%  c #4A231F",
"&  c #5A2518",
"*  c #692917",
"=  c #642B1B",
"-  c #7A2D17",
";  c #732D1B",
":  c #67301A",
">  c #7D3216",
",  c #74321D",
"<  c #7D321C",
"1  c #76381E",
"2  c #472928",
"3  c #552D27",
"4  c #4A312F",
"5  c #463739",
"6  c #583737",
"7  c #642B23",
"8  c #752D21",
"9  c #6E3223",
"0  c #653628",
"q  c #6E392B",
"w  c #713424",
"e  c #7C3323",
"r  c #783927",
"t  c #71332B",
"y  c #673C35",
"u  c #723D33",
"i  c #7E422F",
"p  c #6B463E",
"a  c #764337",
"s  c #363A45",
"d  c #34485A",
"f  c #365464",
"g  c #46444B",
"h  c #594649",
"j  c #494856",
"k  c #48555E",
"l  c #595556",
"z  c #654A44",
"x  c #70594C",
"c  c #645758",
"v  c #474E61",
"b  c #445867",
"n  c #575B63",
"m  c #576168",
"M  c #48687B",
"N  c #596976",
"B  c #58707D",
"V  c #656666",
"C  c #6C7376",
"Z  c #62727A",
"A  c #812D13",
"S  c #842D1B",
"D  c #882D19",
"F  c #833216",
"G  c #83311B",
"H  c #88371B",
"J  c #913C1F",
"K  c #862E22",
"L  c #833322",
"P  c #893925",
"I  c #843E30",
"U  c #894424",
"Y  c #9A4B2C",
"T  c #9D542F",
"R  c #8A4835",
"E  c #964C33",
"W  c #8B523A",
"Q  c #9E5434",
"!  c #A3542F",
"~  c #A65B38",
"^  c #925D49",
"/  c #AD5457",
"(  c #9D634B",
")  c #966851",
"_  c #B96A47",
"`  c #B27651",
"'  c #B6755A",
"]  c #947268",
"[  c #AD756A",
"{  c #BA7A62",
"}  c #C1784F",
"|  c #C57857",
" . c #C8766D",
".. c #B28570",
"X. c #B78671",
"o. c #CF835F",
"O. c #D5845A",
"+. c #CB876A",
"@. c #D68B66",
"#. c #C9946B",
"$. c #D99568",
"%. c #DB956B",
"&. c #D38D71",
"*. c #C9977B",
"=. c #D59373",
"-. c #DC9977",
";. c #E48A6C",
":. c #E19868",
">. c #EB9C73",
",. c #E69878",
"<. c #DBA26E",
"1. c #CBA37C",
"2. c #DAA47A",
"3. c #E9A374",
"4. c #E9A478",
"5. c #E3AA7F",
"6. c #ECAB7C",
"7. c #F4A678",
"8. c #F4AD7C",
"9. c #FBAF7C",
"0. c #EEB17B",
"q. c #F6B17C",
"w. c #FBB37E",
"e. c #F7B87C",
"r. c #3E7289",
"t. c #436A84",
"y. c #5A6288",
"u. c #497589",
"i. c #537589",
"p. c #527C92",
"a. c #67778A",
"s. c #4A849C",
"d. c #51829B",
"f. c #5B8599",
"g. c #67828C",
"h. c #6E8595",
"j. c #4886A3",
"k. c #4C8DAB",
"l. c #558CA6",
"z. c #5F94AC",
"x. c #4E94B4",
"c. c #5395B4",
"v. c #5C9AB5",
"b. c #539CBC",
"n. c #5B9CBB",
"m. c #6D97AE",
"M. c #7C96A4",
"N. c #59A1BD",
"B. c #77A8BD",
"V. c #4C9FC6",
"C. c #4DA1C6",
"Z. c #4EA2C9",
"A. c #51A4C6",
"S. c #5AA4C5",
"D. c #52A5CB",
"F. c #5AA7C9",
"G. c #55A9CD",
"H. c #5BADCE",
"J. c #56A9D0",
"K. c #5BAED4",
"L. c #5BAED8",
"P. c #5EB1D4",
"I. c #63A5C4",
"U. c #61ACCD",
"Y. c #73B3CD",
"T. c #60AFD1",
"R. c #64B2D3",
"E. c #69B5D5",
"W. c #66B7D8",
"Q. c #68B7D8",
"!. c #65B8D8",
"~. c #6BB9DA",
"^. c #9D888B",
"/. c #AA968F",
"(. c #AC958F",
"). c #B49A87",
"_. c #B49995",
"`. c #90A59F",
"'. c #BDA696",
"]. c #879DBA",
"[. c #97A9AB",
"{. c #84AABA",
"}. c #94ACB6",
"|. c #9CB2B4",
" X c #A7ABA7",
".X c #ACB2AD",
"XX c #B5B5AE",
"oX c #AEB1B0",
"OX c #C99583",
"+X c #D29C80",
"@X c #EE938F",
"#X c #FA9698",
"$X c #D6A588",
"%X c #C9AC9A",
"&X c #D7AD96",
"*X c #DBB498",
"=X c #E4A683",
"-X c #E8AB87",
";X c #EDAD8B",
":X c #F5AC83",
">X c #F9AD85",
",X c #F3AA8A",
"<X c #ECB187",
"1X c #ECB48C",
"2X c #F5B284",
"3X c #FCB383",
"4X c #F7B985",
"5X c #F4B58B",
"6X c #FAB38A",
"7X c #ECB496",
"8X c #F7B691",
"9X c #CC9AA3",
"0X c #C2AEA4",
"qX c #C6B9AB",
"wX c #D3B8A8",
"eX c #C7B6B7",
"rX c #E3AFAE",
"tX c #D8C2AC",
"yX c #83B7C9",
"uX c #AEB9C3",
"iX c #B5C7CA",
"pX c #CADBDE",
"aX c #ECDCDC",
"sX c #CAE3EC",
"dX c #E9EAE9",
"fX c #F6F3E7",
"gX c #F6F6F1",
/* pixels */
"~.~.~.~.~.Q.Q.W.Q.W.!.!.P.!.P.P.P.P.P.P.!.H.P.H.P.P.H.H.H.P.H.H.H.H.H.G.G.G.G.J.G.H.G.H.G.G.G.N.G.A.G.G.D.G.D.A.A.G.A.A.A.A.C.A.",
"~.~.~.~.~.~.~.~.Q.~.!.!.!.!.!.P.!.P.!.P.P.P.P.P.P.H.H.P.P.J.H.H.H.J.H.G.J.H.J.J.G.H.G.N.G.G.G.G.G.G.A.G.G.D.D.A.A.A.A.C.A.C.C.C.",
"~.~.~.~.W.W.~.W.~.W.!.!.!.!.!.P.K.W.W.P.!.P.P.H.P.P.P.H.J.P.H.H.H.H.H.H.G.G.J.J.G.G.G.G.G.A.A.A.G.A.G.A.D.D.D.A.A.A.A.C.C.A.C.C.",
"~.~.~.~.Q.Q.Q.W.W.W.!.R.!.P.!.P.W.P.H.H.P.H.H.P.H.H.H.P.j.N.r.s.J.G.A.H.G.H.J.H.G.G.G.G.N.G.G.G.A.G.D.D.D.D.D.A.A.A.A.A.A.C.C.C.",
"~.~.~.E.E.~.W.W.E.E.W.W.P.R.R.R.R.P.U.R.P.P.P.H.H.H.H.N.f B m g M b b.G.G.D.D.G.H.G.G.A.G.G.G.A.A.N.G.A.G.D.D.A.A.A.A.b.C.C.C.C.",
"~.~.E.E.E.E.W.E.R.W.R.R.!.R.R.R.R.P.R.R.P.P.H.H.H.H.H.u.2 a * : : p 2 2 f V.D.G.N.G.A.G.N.A.A.A.D.D.A.A.D.A.A.A.A.C.C.C.C.C.b.C.",
"~.~.~.~.E.E.Q.R.R.E.W.W.R.R.P.R.R.R.P.R.R.H.H.P.P.H.H.% : - > > < > H : N.H.D.G.H.G.G.G.G.A.A.G.A.A.D.A.A.A.A.A.A.C.A.C.C.C.A.C.",
"~.~.~.E.~.E.E.E.R.!.W.W.R.P.R.R.U.R.P.P.P.H.H.H.H.k.5 : 1 U O.O.~ > > W i M G.G.G.G.N.G.A.G.G.A.D.A.A.A.A.A.A.A.A.A.C.A.A.b.C.C.",
"~.E.E.E.E.E.R.E.W.R.R.W.R.R.R.R.H.R.H.H.U.H.H.H.N.4 , G Y 4.6.>.4.O.4.:.5.' d.A.G.H.G.A.A.G.A.A.A.A.A.A.A.D.A.A.A.C.C.A.A.C.C.C.",
"E.E.E.E.E.E.E.R.W.W.W.R.R.R.R.U.R.R.R.H.U.R.H.H.g = G P 4.8.=.).] -.-.] X.-.^ b.A.A.G.A.G.A.G.A.A.A.A.A.A.D.C.C.A.A.A.A.A.A.C.C.",
"~.E.E.E.E.E.E.E.R.W.R.R.R.R.R.R.R.H.H.T.H.R.H.N.@ e S _ 3X4.%XgXgX&X&XgXdX*.&.k G.G.A.A.A.A.A.G.A.G.A.A.A.A.C.G.A.A.A.C.A.C.C.C.",
"E.E.E.E.E.E.E.E.E.R.E.R.R.R.R.U.R.U.R.U.U.H.H.s , L H 3X2X$XgXiX}.wX0X|.pXfX&.u A.G.A.G.G.A.A.A.A.A.A.A.A.A.C.D.A.A.C.C.A.C.C.C.",
"~.Y.~.E.E.E.E.R.W.!.W.R.R.R.R.H.H.R.H.R.U.H.S.% * F ! 3X8.tXuXm sX(.(.dXv pX*X .N.G.G.G.A.A.A.A.A.A.A.A.A.A.A.D.D.A.A.C.A.C.C.C.",
"E.E.E.E.E.E.E.E.R.R.E.R.R.R.R.R.T.H.R.H.H.N.j.% e F ~ 3X=.dXd   M._.(.s   M.0XOXB c.A.A.G.A.A.A.A.G.D.A.C.D.D.C.C.A.A.A.C.C.C.C.",
"E.E.E.W.E.E.E.E.E.R.!.R.R.R.R.U.H.R.R.T.V *...+ < - O.w.*.aXv   a...] n X t.eX&.) *XZ A.A.G.G.D.D.D.D.D.D.C.D.C.D.C.C.C.A.C.C.C.",
"E.E.E.E.E.E.E.R.E.W.R.R.R.R.P.P.R.T.T.b =X@.<.:X- A :.:.>.;X&X..6 R W 6 y.a.eX+.( o.$Xs.G.A.D.D.C.D.D.A.D.C.D.D.D.C.C.A.A.C.C.C.",
"~.E.E.E.E.E.E.W.E.R.E.R.R.P.R.H.T.T.H.x #.' R q.@.| 9.3X9.9.3X1XR & 7 q OX*X*.U + ` =.M D.D.D.D.D.D.C.D.C.D.D.D.C.C.Z.C.D.C.C.C.",
"E.E.E.E.E.E.E.E.E.R.R.R.R.R.R.R.R.T.H.x 3.O.R 8X$.9.9.3X3X3X3Xw.4X-X,.:Xq.3X3X%.~ >...b.D.D.D.D.D.D.D.D.D.D.C.D.D.D.C.A.C.Z.C.C.",
"~.E.E.E.E.E.E.R.R.W.R.R.R.K.T.U.T.H.R.k 8.>.8X@.7.q.w.3X3X,X8.q.2X4X3X$.2Xq.6X:X3.%.h.F.G.D.D.A.D.D.D.C.A.A.A.C.C.Z.D.C.C.C.C.C.",
"~.Y.E.E.E.E.E.E.E.W.R.P.H.E.T.T.H.R.T.N.OX%.8.%.q.q.3Xq.2X6XI =X6X6X:X:X5X;X,X@.2X] C.D.D.D.D.Z.D.D.D.D.A.A.D.C.C.D.C.C.C.C.Z.C.",
"E.E.Y.E.{.XXqX[.{.Y.Y.g.V m B N f.N.F.K.Z $X8.:.9.w.3X3X3XP O u tX0XwX%X0XrX) $ -X[.D.D.D.D.D.D.D.C.A.A.A.A.A.C.C.C.Z.C.C.C.C.C.",
"E.E.R.E.XX5.:.5.5X1X1.1 < < S < L e q p V U | O.8.9.w.3X3X .# O . ] /.eX^.6 o $ 8X/.G.A.A.C.D.A.D.D.A.A.A.A.A.C.D.Z.Z.C.C.C.C.C.",
"E.E.E.E.iX&X%.%.6.2X-Xw ; S H G G S P D D 1 + e :X:Xw.q.q.>X&.; O [ @X/  .$ # _ 8.Q 3 6 6 6 4 4 r.s.s.b.A.A.A.C.C.Z.Z.C.C.C.C.C.",
"E.E.E.E.R.~.B.B.E..X&X# = q q 0 0 q = e P S G < | :X4Xw.3X3X:X6X@XO / #X#X .,X>X:XA F F > F S G 1 1 1 4 `.A.A.A.C.D.C.C.C.C.C.C.",
"E.R.E.E.Y.E.R.R.R.uX}.m.v.N.H.U.E.H.c.v.z.j 0 r H ~ >.3X3X8.3X3X>.;.;.#X#X#X,.&.: , 1 1 < G e G > F - : p *X$X#.1.qXH.b.C.C.C.C.",
"E.Y.E.R.R.R.E.R.Y.K.W.R.P.R.U.R.R.H.K.H.H.H.S.i.6 1 G E | @.:X:Xq.6X,.#X#X#X^.M r.r.M r.u.M B l 6 1 : W 4X4X0.<.e.0.|.C.C.C.C.C.",
"E.R.E.Y.R.E.R.Y.R.R.K.R.R.U.U.U.R.U.H.K.H.H.H.H.i.$ w L < # Y ' =.%XOX@X#X#X].D.G.D.D.D.D.D.D.D.A.j.C ..1X`.|.*X%X|.B.C.C.C.C.C.",
"E.R.E.R.R.E.E.R.R.R.R.R.R.U.v.Z Z S.R.H.H.H.H.N.3 < G G G G G G f.D.G.9X#XrXI.G.D.D.D.D.D.D.D.D.A.D.H.N.XXB.A.Z.A.C.b.C.C.C.C.C.",
"E.R.R.R.R.R.R.U.U.R.R.P.U.l ; T T ( g.H.H.H.G.d , G F S G G G G n.D.D.D.I.S.D.D.D.D.D.D.D.D.D.D.D.D.A.Z.Z.Z.Z.Z.Z.C.Z.V.C.C.C.C.",
"R.R.R.Y.Y.R.R.R.R.R.R.U.x < G U U E z H.P.H.l.7 S G G G G G G G n.D.D.D.G.D.D.D.D.G.G.D.D.D.D.D.D.C.Z.D.Z.Z.Z.A.Z.Z.Z.V.C.C.C.C.",
"E.R.R.R.R.R.Y.E.U.R.R.c < S = r 1 p B P.P.H.5 < S < G G G G S S p.J.D.J.J.D.D.D.D.D.G.D.D.D.D.Z.D.Z.D.Z.Z.Z.Z.Z.Z.Z.Z.Z.Z.V.V.C.",
"E.Y.R.R.R.R.R.R.R.R.l.P 1 h K.H.P.H.H.H.H.s.& 1 K F F G G P P H h D.J.D.D.D.J.D.D.D.G.D.D.D.D.A.Z.Z.A.Z.Z.Z.Z.Z.Z.Z.Z.Z.V.V.V.C.",
"E.E.U.E.R.R.R.R.U.U.p > 0 v.P.H.H.P.P.H.G.n e G G D D A | >.7.8.| f.D.D.G.G.D.D.G.D.D.D.D.D.C.D.C.C.D.C.Z.Z.Z.Z.A.C.C.C.C.C.C.C.",
"E.E.R.U.R.P.R.R.E.v.L F n P.P.P.K.K.H.P.G.3 < G G D J @.>X3X3Xw.6X[ s.G.D.D.D.G.G.D.D.D.G.D.D.D.D.D.D.C.A.Z.A.Z.A.A.C.C.C.C.V.C.",
"U.E.R.E.R.R.R.R.P.f.- , i.P.U.P.H.P.P.H.d.= G G G G | 3X3X3X3X3X3X6X^.G.G.D.D.G.D.D.D.D.D.D.D.D.D.D.D.C.Z.Z.A.Z.A.C.C.C.C.C.V.V.",
"E.R.R.U.R.R.R.P.U.f.> ; f.T.K.K.P.H.H.R.b , S G D Y 7.3X3X3X3X3X6Xw.X.A.D.G.D.D.G.D.D.D.D.D.D.D.D.D.D.C.Z.Z.C.Z.A.C.C.C.C.V.V.V.",
"E.E.R.R.R.R.R.R.E.z.P > i.G.K.H.H.P.K.K.j 1 F H H } q.9.3X3X3X3X6Xe.1XA.G.G.D.G.D.D.D.A.D.D.D.D.D.C.Z.D.A.Z.Z.A.C.C.C.C.C.C.C.V.",
"E.U.R.R.U.R.R.R.R.S.p > y H.T.K.P.H.K.K.j e D G D O.9.3Xw.3X3X3X6Xe.8XA.G.D.G.D.G.D.D.D.D.D.D.D.D.D.Z.A.Z.A.Z.A.C.C.C.C.C.V.V.V.",
"E.U.R.R.R.R.R.R.R.P.f.u ; h l.K.T.H.K.K.j < F F F ;.>X3X3X3Xw.3Xw.3X1XA.G.D.D.D.D.G.D.D.D.C.D.C.D.Z.D.D.Z.Z.Z.Z.C.C.C.C.V.V.C.V.",
"E.R.E.U.R.R.R.R.P.P.P.p.y w 3 5 i.l.c.k.g : D D F O.3X3X3X3X3X3Xw.6X/.G.D.G.D.D.D.D.D.D.D.D.Z.D.Z.D.Z.Z.A.C.Z.Z.Z.C.C.V.V.V.C.V.",
"E.R.T.E.T.R.R.T.R.R.P.P.T.N a 9 9 9 t t 7 & D G S | 9.3X3X3Xw.3Xe.6X[.F.G.D.D.D.D.D.D.A.D.A.D.D.Z.A.Z.D.Z.Z.Z.Z.C.C.C.C.C.C.C.C.",
"R.R.R.R.E.T.R.T.R.P.P.P.P.P.K.A.N.v.n.n.F.M 8 G S Y >.q.w.w.6X:Xe.=XS.A.D.G.G.D.D.G.D.D.D.D.Z.D.D.D.D.Z.A.Z.C.C.C.C.C.C.C.C.C.C.",
"R.E.T.R.R.R.R.R.R.P.P.P.K.P.P.P.P.K.K.K.K.D.h < S A _ :Xw.q.w.8.=XP 9 q p V d.D.D.D.D.D.D.D.D.D.Z.D.D.A.Z.Z.Z.C.C.C.C.C.V.C.C.C.",
"R.T.T.R.T.T.R.R.R.T.P.P.P.P.P.P.P.P.K.K.K.K.x.7 e < # _ ,.:X=X .* 9 * G K A r n A.D.D.D.D.A.D.D.D.Z.Z.Z.Z.Z.Z.Z.D.C.C.C.C.C.C.C.",
"R.R.R.T.R.T.L.R.R.K.P.P.K.T.L.T.K.K.K.K.K.K.K.f ; < 0 2 5 d x.x.x.x.x.f 2 9 , - h G.D.D.G.D.D.A.G.b.D.A.Z.Z.Z.Z.Z.C.C.C.V.V.V.C.",
"R.T.T.T.T.T.T.R.R.P.P.P.R.T.L.K.K.T.K.K.K.K.K.F.3 < a G.H.G.K.G.D.J.D.D.A.k.6 L - p.D.D.D.{.).1.1.M.D.Z.Z.Z.Z.Z.Z.V.V.C.C.C.V.V.",
"R.R.L.T.T.P.R.L.P.P.P.P.P.P.K.K.K.K.T.K.K.K.J.J.g < r N.H.G.G.G.J.G.D.D.D.D.c.6 < u N a. X5.<.=XtXN.Z.D.Z.Z.Z.Z.Z.Z.C.C.V.V.V.V.",
"T.T.R.R.T.T.T.L.P.P.P.P.P.K.K.K.T.K.K.K.K.J.K.K.M ; 1 u.J.K.K.G.J.D.J.G.G.G.D.p.1 < & *.w.4X0.7XM.A.D.C.Z.Z.Z.Z.Z.Z.Z.V.V.V.V.V.",
"T.R.T.T.T.P.P.P.P.P.P.P.P.P.K.K.K.T.L.K.K.K.K.K.S.& - n K.J.K.K.J.J.G.G.G.G.J.k.w & ( >.$X@X9X].N.G.A.D.Z.Z.Z.Z.Z.Z.Z.Z.V.V.Z.V.",
"L.R.L.T.T.P.P.P.P.P.P.P.H.P.K.K.K.K.K.K.K.K.T.J.S.= e n J.H.G.J.J.J.G.G.D.G.Z.k.& { 6.>X5X].L.Z.G.N.D.A.Z.Z.Z.Z.Z.Z.Z.Z.V.V.V.Z.",
"L.T.L.R.L.P.L.R.P.K.L.L.K.R.K.K.K.K.K.K.K.K.K.K.u.= e j.J.K.J.G.J.G.G.D.J.J.D.j.z =X,X&XyXV.V.Z.D.Z.D.D.J.Z.Z.Z.Z.J.Z.Z.V.Z.V.V.",
"T.R.L.L.L.W.P.L.L.P.R.K.K.K.K.K.T.K.K.K.K.K.K.J.g K e J.J.K.J.G.J.G.G.D.J.J.J.D.S.wX XI.D.D.L.Z.D.Z.D.Z.Z.Z.Z.Z.Z.Z.Z.Z.V.Z.V.Z.",
"L.T.L.L.T.T.L.P.P.P.P.K.P.R.L.K.K.K.K.K.T.K.J.c.7 K c J.J.G.G.J.J.G.G.G.J.J.D.D.G.G.D.D.L.Z.Z.V.D.D.G.Z.Z.Z.Z.Z.Z.Z.Z.Z.Z.V.V.Z.",
"T.L.T.L.L.L.R.L.P.K.L.P.L.K.K.K.T.L.L.K.L.T.c.2 P t N.J.P.J.G.G.J.G.G.G.D.J.J.D.G.D.D.D.Z.V.Z.L.D.D.Z.Z.Z.Z.Z.Z.Z.Z.Z.V.Z.V.V.V.",
"L.L.T.L.T.L.P.R.L.P.L.P.K.L.K.K.K.K.K.T.K.t.6 r L C K.K.J.G.J.K.J.G.J.G.D.J.D.D.J.D.J.D.Z.L.Z.L.D.D.D.Z.Z.Z.Z.Z.Z.Z.Z.Z.Z.V.V.V.",
"L.L.L.T.L.R.L.L.L.P.P.K.P.P.K.K.K.L.T.K.N u a + * a.K.G.K.K.K.G.J.J.J.G.J.D.J.J.D.J.D.J.V.L.Z.Z.D.D.D.Z.Z.Z.Z.J.Z.Z.Z.Z.Z.Z.Z.Z.",
"K.K.L.P.P.P.P.P.L.P.P.P.P.L.L.K.K.K.K.K.XX,X<X=X<X1X%X XB.Y.T.J.G.J.J.G.G.G.G.G.Z.Z.L.L.Z.Z.Z.Z.Z.Z.Z.Z.L.Z.Z.Z.Z.Z.Z.Z.Z.Z.V.Z.",
"T.K.K.K.L.K.K.K.L.P.L.L.L.P.K.K.K.K.K.K.U.|. X7X8.7.4.9.>X=XoXJ.G.J.G.G.G.G.G.D.L.Z.Z.Z.Z.L.L.Z.Z.L.Z.Z.V.Z.Z.Z.Z.Z.Z.Z.Z.V.V.Z.",
"L.K.K.K.K.K.K.P.L.P.P.P.P.P.K.K.K.K.K.K.K.K.J.H.[.-X<X#.2.+X}.J.J.G.G.J.D.G.D.G.Z.L.Z.Z.Z.Z.Z.Z.L.Z.Z.Z.Z.Z.Z.Z.Z.Z.Z.Z.Z.Z.Z.Z.",
"K.L.K.K.L.L.L.L.K.P.L.L.L.K.L.P.K.L.K.K.K.K.K.K.J.}.*XtX'.oXU.J.K.J.J.J.J.J.D.J.Z.L.L.L.Z.L.L.Z.L.Z.L.Z.Z.Z.Z.Z.Z.Z.L.Z.Z.Z.Z.V.",
"K.K.L.K.L.L.L.L.L.P.L.P.L.P.L.L.L.K.L.L.L.K.K.J.K.L.G.H.J.L.J.J.J.J.L.J.J.J.J.J.Z.L.Z.Z.L.Z.Z.Z.V.V.Z.Z.Z.L.V.Z.Z.L.Z.Z.Z.Z.Z.V.",
"L.K.J.L.L.P.P.L.L.J.L.L.L.L.J.L.K.L.K.K.L.K.K.L.K.L.K.K.L.J.L.L.J.L.L.J.J.J.J.J.L.Z.L.Z.Z.Z.L.L.Z.L.Z.Z.Z.Z.Z.Z.Z.Z.Z.Z.Z.Z.Z.Z.",
"K.J.L.L.L.J.L.P.P.L.L.L.P.J.P.L.L.K.L.L.L.K.K.L.J.L.J.K.L.J.L.J.L.J.J.J.J.J.J.D.Z.L.Z.Z.Z.L.Z.Z.Z.Z.L.V.Z.Z.Z.Z.Z.Z.Z.Z.Z.Z.Z.V.",
"K.L.L.J.L.L.L.L.L.L.L.L.L.L.L.L.K.L.K.J.K.L.K.J.L.K.J.L.J.L.J.L.J.J.J.J.J.D.J.J.L.Z.L.L.Z.Z.L.Z.L.Z.L.Z.L.Z.Z.L.Z.Z.Z.Z.Z.Z.Z.Z."
};
