/* XPM */
static char *wall1714407346[] = {
/* columns rows colors chars-per-pixel */
"64 64 38 1 ",
"  c #0A070E",
". c #0A090F",
"X c #0D0C12",
"o c #100F14",
"O c #131216",
"+ c #161519",
"@ c #18171B",
"# c #1C1B1D",
"$ c #201E1F",
"% c #22211F",
"& c #1E1D20",
"* c #211F21",
"= c #242324",
"- c #282627",
"; c #2A2927",
": c #272628",
"> c #292728",
", c #2C2B2B",
"< c #312E2D",
"1 c #32312F",
"2 c #312F30",
"3 c #353332",
"4 c #393634",
"5 c #3B3936",
"6 c #3D3C39",
"7 c #423D3B",
"8 c #44413E",
"9 c #49443E",
"0 c #464441",
"q c #4A4542",
"w c #4D4946",
"e c #4E4C49",
"r c #514C46",
"t c #524D4A",
"y c #55514D",
"u c #58534E",
"i c #565551",
"p c #585350",
/* pixels */
"====::;,:1;1,;,,2:2:,,,2,>>,,;,;:;;:,:,,::22:2222233133533555531",
"====::,,,112111123222332221,,,111,,11,,1232232223333355365666666",
"=-==:22211112212335323335,151133131331,1522323356133536666600606",
"===;,:,222133233333333333331133333133333333323366366666666860600",
"===:;,,233336336333346435555563323333632335536666660600806000000",
"%%=:;,2233363636356346446533353366632336856565666366606000006000",
"%===;,1233636336536666543655533666366366666606866066660990e00e0e",
"%==:;1213333666355565674656566666666366656666668050e0000990e0000",
"%=%:,,21336366637274474444747474666666666766668870780qqq999e9ee9",
"&%==:,,1263336662777277797774477666677576688866866q87qqw9ii9eee9",
"&=:::,,22336666677777724474794446666447760066886q099q0tqe9eewee9",
"#&&::,,223363363<7<7777744974447655685476060e608008q9qqqe9eeeee9",
"&%%::,1123633366<77<7474444747770688748858607788e080qqqqwtwwetyq",
"##%%::,1233633337<<744777777977740778777660066008e0qqqqqrwwtyete",
"%===:::223333333777<4744774494475678787770000qq0qqtwtqqqwtwttyyw",
"##%::::2222363367<777477744749778778877q770680007qqqqtqrwt9tweue",
"#%&&:=1:,333333535656656477777777777977q477q799qqqqqqqwwwtttttte",
"##%%&=:11,131633663365667447447794777777wq7qqqqqqqqqwwwtwtettttt",
"###&=:,:1111333313665656474477794799777qq7q7wqqqqqqq0eewttttytte",
"##%&==::,1,,31116311136174779494779494q77qqqqqqqqwwweewwttytytte",
"####%=::,,,1133331333365474<777744977q77q47qqqqqqqqeqeetyetieeie",
"###%==::;,1;1313113333557444474777q47979qqq7qqqqwqeweewtteeteiee",
"####%%%;:11;111,13511115444474747497777qqqqqqqqqqtwqeqeetyieeyei",
"+###%%%=2;%:1,,21353115174444777r97777qq7qqqtqqwwqtteiittteyyiee",
"+#+##%%:%::11232,11311553437<77<7q979979997qqqwwqqqwyttytttttpyt",
"++###%%:::1:11,33113;5;;<3774<794774q9999qqqqwwwtttttyttyttyyppt",
"O#O#%#%%:::1;,;1,1113355<44744449744949q7wqqpwtqqttttttttttyyyyt",
"OOO#%%#%%:,,1=:,;13831=,<7<<449749477q7797wqqtt9qttwpttytptpyyty",
"#+O###%%::=;:1;;1:=11,557<<<7447447977q77w7wtqtwttttttttyruyyyyt",
"++#O#%##::%%:::;1;=11113;747<744447979777q7qwwwwtqttttyyyyyuyyuy",
"OOO#OO%%%=::,:,,:,1;,3317<<<4744477499777q7wwwtwwwwtwtyyyytuuuur",
"OOOO##O%==%:#,:=:%111,,6-;<7<<774747477q97wwwtwwwttttpyrypuuuuur",
"O+@O+**+**,*:>>2*>,**2<;=7;7<<4,774q47749q0rpwwtqtttytttyptyypyy",
"oOO++O+$***>*:***>,<,<><,<7;,<7444774774q7q5qrtqwqwttrrtyyppppyt",
"oo+@++@******,*:,>***3><;<;7<,77447477776qqqqtqqtwttryytyypyyppt",
"oOoOO+@**&***>>>*><<***>;<;<<735444r74498q7ttqtwwrttrytuyytyypyy",
"+o++++&+&&&**>>**>><*7*,-<,45,5;24<4447q81qqtty9wwuryrruptpppypp",
"XoooO+++&&****>*****>>>*<><<6,<54474q447q97r9999wrrrrrurtptppppy",
"oXXoO++*@**&***:>**>><,,,,>2,32547444474077999rr7urrrrrutuypppyy",
"XXX+OO++&*@********<>><,>>*46-,372247774q7t8q9r9wr9rrrrutytpppyt",
"oXXo+o@&@@*$*******<,<>>>>25333><444153669ee999rqqqqrrytyuppuptt",
"XXoXoo++*@@********>*<,*,>,>,2332447365398q98r9r9rytryututtpptpt",
"XXoXoo+++@+&***********<,>,->326424263388590899wrrrtrtyyttpuptpt",
"XXoXoo++&@&&*****,*,*>>>>>>>>>224427353577887w9tt7qtytutuupppppt",
" XXXXO+@&&&&****$**<>*<>>->3:5232427843887998q997rryrwputyyuytpt",
"XXXoooO+++&&****$*$***>*->*>2,,3>2423830868e7qq8urrytrtyyyruuppt",
" XXXooO++&&&***@*****>*-:-:>,2,,,345:63656686w09qqrrtturyruuyuut",
"X XXXXo+++&*********>**,:>>::3,-2344442456969qq0tqrrrryruururyuy",
"  XoXXo++@&&&&+&&:==:&==:=::,,,:13,5153638660qqerwwttpttyyrtttur",
" XXooXo@+@@@&&&&=:&&::::#=:,,:1,6113,33368690q8wtqttwttyyypyuuuu",
"   XXoo++@@&+&&&&&==&:&:->=,=:31133663566869eq0wwwwttwptpppyuput",
"  XXoXo+++@&&&&&&&&=&&,&=--=:22,3115556606608q9etwwtwpwpytypuput",
"X XXXoo+@@@@&+&&&%&&%&::,>>,==,>%,31613356680800rqtwwtwttypyuppr",
"X   Xo+++@@#+&&+&&&&&:%:>=;,=1=,11330366356808w0qwtwttppttyypppp",
"  XXooo++@@#&@&&&&&&&=,:>=,#=,,:11313350630066e0qqwwwtttppyyyyyt",
"  XXXooO+@@@@&@&&&%&%=&:=->-,>,21111363666660000qqttwttpptpyyypt",
"..X.Xoo+++@@@#&&#&=&&::&:::&:::&;31133363866000000qtqpeptpytpppt",
"X..XXXoO@+++&&#&#=&=&,=:::%,,,,::13161630666600e07twtpttpttyppiy",
"..XXXooO&+++#&&&&&&&&&:::::=1=,111316115258606e00wtwwepeptyytiyt",
"...XXooOo+&&###%#&&::::,=;:,=,,1;1661,51366860000wwwwtttttyyipit",
"...XoooO+&+&##&&&&&:%=:=%;::1:11:1166653666608000eweweteitptyppe",
"...XXXOO++&+#&&&&&&:====%;,=11:,3,:0136356560e6e6eeweeettttpippe",
"....XXo+++#+&&#&&&==&=:%::==6%:111311366650006000iwwweeeitptpppp",
"...Xoooo++##+&&&&&&&=:=%==;=,:,11,16133126666080ww0qeeeeeettttew"
};
